<?xml version="1.0" encoding="UTF-8"?> <svg xmlns="http://www.w3.org/2000/svg" width="156.601" height="60" viewBox="0 0 156.601 60"><defs><style>.a{fill:#ee3d23;fill-rule:evenodd;}</style></defs><path d="M47.941,29.6a15.236,15.236,0,0,1-3.4-4.324A24.36,24.36,0,0,1,43.221,20.6,22.952,22.952,0,0,0,45.9,18.507a21.627,21.627,0,0,0,2.576-3.077s-3.173-.39-5.459-.745a12.214,12.214,0,0,1-4.36-1.508,7.74,7.74,0,0,0,.241-2.314,12.7,12.7,0,0,0-.745-4.324,11.832,11.832,0,0,0-3.416-5.194A6.96,6.96,0,0,0,32.322,0s-.754,1.666-1.336,2.682a8.81,8.81,0,0,1-2.346,2.794,8.116,8.116,0,0,1-2.726,1.206A7.791,7.791,0,0,1,23.19,5.476a8.875,8.875,0,0,1-2.346-2.794C20.272,1.666,19.513,0,19.513,0A6.959,6.959,0,0,0,17.1,1.346,11.807,11.807,0,0,0,13.68,6.54a12.748,12.748,0,0,0-.745,4.324,7.74,7.74,0,0,0,.249,2.322,12.248,12.248,0,0,1-4.36,1.508c-2.285.354-5.457.745-5.457.745a22.433,22.433,0,0,0,2.575,3.077,22.951,22.951,0,0,0,2.676,2.091A24.48,24.48,0,0,1,7.3,25.279,15.236,15.236,0,0,1,3.9,29.6C2.668,30.589,0,32.52,0,32.52s2.685,4.5,4.093,6.463c1.033,1.42,4.856,6.208,6.823,8.3s5.494,5.263,7.408,6.935c1.851,1.613,7.236,5.531,7.585,5.783h.018c.345-.252,5.729-4.17,7.585-5.783,1.915-1.658,5.441-4.838,7.408-6.935s5.8-6.873,6.823-8.3c1.408-1.96,4.093-6.463,4.093-6.463S49.168,30.589,47.941,29.6ZM7.567,16.8a30.915,30.915,0,0,0,4.661-.709,12.061,12.061,0,0,0,3.015-1.382,25.408,25.408,0,0,0,2.977,3.769,19.763,19.763,0,0,0,3.048,2.412s-2.64-2.976-3.385-4.146a16.69,16.69,0,0,1-1.577-3.1,11.437,11.437,0,0,1-.766-2.94A8.485,8.485,0,0,1,15.719,8.1a9.531,9.531,0,0,1,1.259-3.124,3.747,3.747,0,0,1,1.186-1.257,11.344,11.344,0,0,0,1.01,1.508,14.206,14.206,0,0,0,1.508,1.508A7.21,7.21,0,0,0,19.8,8.168a5.6,5.6,0,0,0-.35,2.7,10.577,10.577,0,0,0,.5,2.091,8.872,8.872,0,0,0,1.612-.8A19.957,19.957,0,0,0,23.713,10.6c1.162-.939,2.218-1.854,2.218-1.854s1.045.923,2.215,1.862A19.976,19.976,0,0,0,30.3,12.157a8.86,8.86,0,0,0,1.613.8,10.515,10.515,0,0,0,.5-2.091,5.6,5.6,0,0,0-.354-2.694,7.264,7.264,0,0,0-.886-1.435A14.144,14.144,0,0,0,32.68,5.227a11.344,11.344,0,0,0,1.01-1.508,3.767,3.767,0,0,1,1.186,1.257A9.531,9.531,0,0,1,36.135,8.1a8.48,8.48,0,0,1,.176,2.608,11.489,11.489,0,0,1-.761,2.943,16.69,16.69,0,0,1-1.577,3.1c-.745,1.17-3.385,4.146-3.385,4.146a19.712,19.712,0,0,0,3.047-2.412,25.806,25.806,0,0,0,2.977-3.769,12.094,12.094,0,0,0,3.015,1.382,30.77,30.77,0,0,0,4.66.709,14.516,14.516,0,0,1-2.322,1.508c-1.312.674-4.975,2.038-6.663,2.714a24.225,24.225,0,0,0-4.129,2.111,26.081,26.081,0,0,0-3.6,2.729,16.337,16.337,0,0,0-1.646,1.924,16.728,16.728,0,0,0-1.648-1.931,26.018,26.018,0,0,0-3.6-2.729,24.17,24.17,0,0,0-4.129-2.111c-1.682-.674-5.352-2.038-6.663-2.714a14.6,14.6,0,0,1-2.325-1.5ZM30.889,38.574a20.086,20.086,0,0,0,1.1-1.848s1.223-.344,2.038-.556a14.681,14.681,0,0,0,1.967-.727,29.472,29.472,0,0,1-2.765,5.139,22.271,22.271,0,0,1-3.58,4.095,26.2,26.2,0,0,1-3.366,2.4V32.455a16.4,16.4,0,0,0,1.86-.193c1.152-.178,2.376-.5,2.376-.5s-.479,1.135-.763,1.826-.745,1.773-.745,1.773.71-.9,1.064-1.437,1.453-2.534,1.453-2.534a11.232,11.232,0,0,0,1.239-.672,4.582,4.582,0,0,0,.939-.85,6.039,6.039,0,0,0,.727-1.578,7.016,7.016,0,0,0,.2-1.63s-.409.194-.727.354-.656.372-.656.372.318-.85.478-1.419.692-2.171.692-2.171-.656,1.373-.9,1.835-.868,1.577-.992,1.773-.567.779-.567.779-.692.478-1.1.779l-.939.69v1.117a11.342,11.342,0,0,1-1.737.514c-.917.151-1.878.247-1.878.247l-.018-2.757a19.279,19.279,0,0,1,1.759-1.833,27.881,27.881,0,0,1,3.03-2.451,16.9,16.9,0,0,1,3.015-1.737c1.206-.549,3.618-1.489,3.618-1.489s.036,2.269-.071,4.714a41.423,41.423,0,0,1-.531,5.706c-.283,1.524-.567,2.481-.567,2.481s-1.33.532-2.57.921c-1.444.452-4.289.957-4.289.957l-.112,4.07S30.477,39.122,30.889,38.574Zm-12.918-9.5a25,25,0,0,0,.779,4.874,13.759,13.759,0,0,0,1.878,3.935,27.013,27.013,0,0,0,1.631,2.2l-.089-4.093s-.479-.194-1.01-.372a12.271,12.271,0,0,1-1.312-.514,14.1,14.1,0,0,1-.763-2.481c-.184-.945-.371-2.251-.371-2.251a21.39,21.39,0,0,0,4.04,1.56,26.856,26.856,0,0,0,2.8.514v6.911c0,2.2-.018,7.7-.018,7.7a31.019,31.019,0,0,1-3.769-2.916,27.014,27.014,0,0,1-4.288-5.427,18.758,18.758,0,0,1-2.518-6.2,36.768,36.768,0,0,1-.49-5.662c-.13-2.676-.107-5.476-.107-5.476s1.738.62,3.811,1.63a22.468,22.468,0,0,1,4.975,3.261,11.51,11.51,0,0,1,2.374,2.516l.054,2.747a16.61,16.61,0,0,1-1.878-.265,11.921,11.921,0,0,1-1.621-.507L21.974,29.6a26.717,26.717,0,0,0-2.091-1.755c-1.036-.763-2.126-1.417-2.126-1.417s.106,1.286.213,2.65Zm27.239,9.552c-1.489,1.985-2.815,3.618-4.2,5.176-1.348,1.508-3.19,3.366-3.19,3.366s-.868-1.287-1.425-2.032-1.8-2.126-1.8-2.126.249.638.473,1.441.46,1.63.46,1.63-2.111,2.062-3.207,3.036-2.641,2.322-2.641,2.322.407.32,1.046.781.939.672.939.672-.9.816-1.649,1.419-2.5,1.789-2.5,1.789L25.93,55.027l-1.6,1.081s-1.755-1.188-2.5-1.789S20.188,52.9,20.188,52.9s.3-.213.939-.672,1.046-.781,1.046-.781-1.542-1.346-2.641-2.322-3.207-3.036-3.207-3.036.235-.826.452-1.63a14.341,14.341,0,0,1,.473-1.441s-1.241,1.382-1.8,2.126-1.423,2.032-1.423,2.032-1.842-1.86-3.19-3.366c-1.387-1.551-2.714-3.19-4.2-5.176s-3.681-5.316-3.681-5.316a30.612,30.612,0,0,0,4.5-3.793,13.331,13.331,0,0,0,2.658-5.068,15.6,15.6,0,0,0,.7-4.36s.626.213,1.37.473,1.122.413,1.122.413-.071,1.382-.018,3.015.089,4.784.338,7.123a16.8,16.8,0,0,0,1.559,5.6,29.965,29.965,0,0,0,5.671,8.028A17.147,17.147,0,0,0,25.9,48.416,16.961,16.961,0,0,0,31,44.749a29.965,29.965,0,0,0,5.671-8.028,16.8,16.8,0,0,0,1.559-5.6c.249-2.34.283-5.494.336-7.123s-.017-3.015-.017-3.015.377-.151,1.122-.413,1.37-.473,1.37-.473a15.538,15.538,0,0,0,.7,4.36,13.355,13.355,0,0,0,2.658,5.068,30.289,30.289,0,0,0,4.5,3.793s-2.2,3.332-3.686,5.316Z"></path><path class="a" d="M205.411,183.906c.059.036.151.712-.181.944a.679.679,0,0,1-.992-.137c-.452.326-.788.574-.788.574V186.6a5.691,5.691,0,0,0,1.949-.9,4.207,4.207,0,0,0,1.165-2.445,6.574,6.574,0,0,0-1.153.656Z" transform="translate(-172.778 -155.624)"></path><path d="M398.9,143.238v10.14h-2.619l-.084-1.114a3.1,3.1,0,0,1-2.646,1.31,3.4,3.4,0,0,1-2.926-1.477c-.668-1.055-.862-2.228-.862-5.014v-6.1c0-3.121.222-4.263,1.03-5.182a4.67,4.67,0,0,1,3.65-1.281c1.728,0,2.953.445,3.618,1.309a5.585,5.585,0,0,1,.835,3.594v1h-2.916v-1.143c0-1.393-.452-2.005-1.476-2.005-1.281,0-1.532.668-1.532,4.07v5.237c0,3.427.3,4.233,1.508,4.233a1.34,1.34,0,0,0,1.254-.754,4.8,4.8,0,0,0,.25-2.09v-1.951h-1.449v-2.786Z" transform="translate(-331.001 -114.24)"></path><path d="M469.622,153.4H460.54c.056-4.512.947-6.74,4.235-10.64,1.393-1.728,1.726-2.424,1.726-3.618,0-1.254-.5-2.007-1.393-2.007a1.275,1.275,0,0,0-1.085.585,2.915,2.915,0,0,0-.3,1.728v1.782H460.6v-1.281a6.092,6.092,0,0,1,.808-3.7,4.414,4.414,0,0,1,3.816-1.7c2.815,0,4.514,1.726,4.514,4.6,0,1.838-.452,2.813-2.313,5.153-2.507,3.092-3.2,4.291-3.538,6.24h5.739Z" transform="translate(-391.11 -114.257)"></path><path d="M569.668,139.342h-5.4v4.707h5.1v2.7h-5.1v5.209h5.712v2.98H561.06V136.36h8.608Z" transform="translate(-476.476 -115.803)"></path><path d="M632.727,140.971v-1.085c0-1.809-.452-2.59-1.447-2.59-.837,0-1.337.612-1.337,1.643s.418,1.728,1.755,2.864l1.838,1.589c2.424,2.089,2.926,3.036,2.926,5.488,0,3.148-1.672,4.791-4.875,4.791-3.232,0-4.735-1.616-4.735-5.1v-2h3.063v1.508c0,1.866.585,2.842,1.728,2.842,1.031,0,1.56-.669,1.56-2.007,0-1.2-.279-1.726-1.477-2.785l-1.755-1.533a9.883,9.883,0,0,1-2.34-2.34,5.322,5.322,0,0,1-.754-3.065c0-3.092,1.532-4.651,4.485-4.651a4.562,4.562,0,0,1,3.317,1.141c.779.781,1.114,1.922,1.114,3.733v1.557Z" transform="translate(-532.348 -114.257)"></path><path d="M701.374,154.941h-3.2V136.36h4.541c2.034,0,2.864.2,3.511.781.835.779,1.17,2.09,1.17,4.456,0,3.9-1.031,5.182-4.152,5.182h-1.866Zm1.087-10.864c1.281,0,1.672-.585,1.672-2.48a3.3,3.3,0,0,0-.529-2.261c-.223-.2-.529-.279-1.254-.279h-.975v5.014Z" transform="translate(-592.916 -115.803)"></path><path d="M776.437,147.612c0,2.815-.222,3.761-1.055,4.708a5.5,5.5,0,0,1-7.187,0c-.835-.947-1.055-1.894-1.055-4.708v-7.048c0-2.813.223-3.76,1.055-4.707a5.5,5.5,0,0,1,7.187,0c.837.947,1.055,1.894,1.055,4.707Zm-6.1-.054c0,2.786.3,3.511,1.449,3.511s1.447-.725,1.447-3.511v-6.935c0-2.784-.3-3.51-1.447-3.51s-1.449.725-1.449,3.51Z" transform="translate(-651.488 -114.24)"></path><path d="M843.474,154.941h-3.2V136.36h4.4c1.951,0,2.9.2,3.538.781.754.668,1.114,2.034,1.114,4.262,0,2.7-.362,3.371-2.172,3.789,1.588.279,2.061.975,2.061,3.2v2.674a12.715,12.715,0,0,0,.3,3.871h-3.366a11.783,11.783,0,0,1-.139-2.34v-3.4c0-2.034-.452-2.7-1.809-2.7h-.725Zm.92-11.031c1.449,0,1.866-.585,1.866-2.48,0-1.978-.362-2.478-1.809-2.478h-.975v4.958Z" transform="translate(-713.593 -115.803)"></path><path d="M912.676,154.975h-3.205v-15.71H906.24V136.4h9.667v2.864h-3.231Z" transform="translate(-769.617 -115.837)"></path><path d="M980.88,140.971v-1.085c0-1.809-.452-2.59-1.449-2.59-.835,0-1.337.612-1.337,1.643s.418,1.728,1.755,2.864l1.839,1.589c2.423,2.089,2.925,3.036,2.925,5.488,0,3.148-1.672,4.791-4.875,4.791-3.229,0-4.737-1.613-4.737-5.094V146.57h3.06v1.508c0,1.866.586,2.842,1.728,2.842,1.031,0,1.56-.669,1.56-2.007,0-1.2-.279-1.726-1.476-2.785l-1.756-1.533a9.883,9.883,0,0,1-2.34-2.34,5.322,5.322,0,0,1-.754-3.065c0-3.092,1.533-4.651,4.485-4.651a4.562,4.562,0,0,1,3.317,1.141c.781.781,1.114,1.922,1.114,3.733v1.557Z" transform="translate(-828.011 -114.257)"></path></svg> 